<svg xmlns="http://www.w3.org/2000/svg" xmlns:xlink="http://www.w3.org/1999/xlink" version="1.1" x="0px" y="0px" viewBox="0 0 100 125" enable-background="new 0 0 100 100" xml:space="preserve"><path d="M83.941,97.331V42.604c3.085-0.145,5.551-2.692,5.551-5.813v-2.655c0-3.212-2.613-5.826-5.826-5.826H16.334  c-3.213,0-5.826,2.614-5.826,5.826v2.655c0,3.12,2.466,5.667,5.55,5.813v54.728h-6.36v2h6.36h67.884h6.361v-2H83.941z   M12.508,36.791v-2.655c0-2.109,1.717-3.826,3.826-3.826h67.332c2.109,0,3.826,1.717,3.826,3.826v2.655  c0,2.11-1.717,3.827-3.826,3.827H16.334C14.225,40.618,12.508,38.901,12.508,36.791z M59.619,97.331H51V85.333h8.619V97.331z   M49,97.331h-8.619V85.333H49V97.331z M61.619,97.331V83.333H38.381v13.998H18.058V42.618h63.884v54.713H61.619z"/><path d="M23.901,60.315h13.584V46.731H23.901V60.315z M25.901,48.731h9.584v9.584h-9.584V48.731z"/><path d="M43.208,60.315h13.583V46.731H43.208V60.315z M45.208,48.731h9.583v9.584h-9.583V48.731z"/><path d="M62.514,60.315h13.584V46.731H62.514V60.315z M64.514,48.731h9.584v9.584h-9.584V48.731z"/><path d="M23.901,78.817h13.584V65.233H23.901V78.817z M25.901,67.233h9.584v9.584h-9.584V67.233z"/><path d="M43.208,78.817h13.583V65.233H43.208V78.817z M45.208,67.233h9.583v9.584h-9.583V67.233z"/><path d="M62.514,78.817h13.584V65.233H62.514V78.817z M64.514,67.233h9.584v9.584h-9.584V67.233z"/><rect x="25.384" y="34.464" width="49.231" height="2"/><path d="M43.685,20.106L50,16.786l6.316,3.32l-1.207-7.032l5.11-4.981l-7.063-1.025L50,0.669l-3.158,6.398l-7.061,1.025l5.109,4.981  L43.685,20.106z M44.079,9.489l4.091-0.594l1.829-3.707l1.829,3.707l4.093,0.594l-2.96,2.887l0.699,4.074L50,14.526l-3.659,1.924  l0.698-4.074L44.079,9.489z"/><path d="M24.009,24.205l5.583-2.936l5.584,2.936l-1.066-6.218l4.518-4.404l-6.243-0.905l-2.792-5.657l-2.791,5.657l-6.243,0.905  l4.518,4.404L24.009,24.205z M24.855,14.98l3.273-0.475l1.463-2.966l1.464,2.966l3.272,0.475l-2.367,2.309l0.559,3.26l-2.928-1.539  l-2.927,1.539l0.559-3.26L24.855,14.98z"/><path d="M64.824,24.205l5.584-2.936l5.585,2.936l-1.069-6.218l4.519-4.404l-6.245-0.905L70.409,7.02l-2.794,5.658l-6.243,0.905  l4.519,4.404L64.824,24.205z M65.671,14.98l3.272-0.475l1.464-2.966l1.462,2.966l3.274,0.475l-2.368,2.309l0.56,3.26l-2.927-1.539  l-2.928,1.539l0.559-3.26L65.671,14.98z"/><text x="0" y="115" fill="#000000" font-size="5px" font-weight="bold" font-family="'Helvetica Neue', Helvetica, Arial-Unicode, Arial, Sans-serif">Created by Srinivas Agra</text><text x="0" y="120" fill="#000000" font-size="5px" font-weight="bold" font-family="'Helvetica Neue', Helvetica, Arial-Unicode, Arial, Sans-serif">from the Noun Project</text></svg>