<svg xmlns="http://www.w3.org/2000/svg" xmlns:xlink="http://www.w3.org/1999/xlink" viewBox="0 0 46 71.25" version="1.1" x="0px" y="0px"><title>96 -Skiing- (winter, christmas, holiday)</title><desc>Created with Sketch.</desc><g stroke="none" stroke-width="1" fill="none" fill-rule="evenodd" stroke-linecap="round" stroke-linejoin="round"><g transform="translate(-724.000000, -1463.000000)" stroke="#000000" stroke-width="2"><g transform="translate(725.000000, 1464.000000)"><path d="M3.6866,42.8488 L38.8956,54.7968 C40.9926,55.4898 43.2546,54.3508 43.9476,52.2538 L43.9476,52.2538 C44.2046,51.4788 43.4706,50.7218 42.6986,50.9858 C41.9016,51.2588 41.0116,51.2838 40.1496,50.9988 L4.9416,39.0508 C4.4166,38.8778 3.8516,39.1618 3.6786,39.6868 L3.0506,41.5858 C2.8776,42.1098 3.1626,42.6758 3.6866,42.8488 L3.6866,42.8488 Z"/><path d="M33,5.0013 C33,2.2403 30.761,0.0013 28,0.0013 C25.239,0.0013 23,2.2403 23,5.0013 C23,7.7623 25.239,10.0013 28,10.0013 C30.761,10.0013 33,7.7623 33,5.0013 L33,5.0013 Z"/><path d="M23.4088,18.2951 L23.0948,19.2451 L22.4668,21.1451 C22.1208,22.1931 22.6898,23.3231 23.7378,23.6701"/><path d="M26.926,29.9887 L22.17,28.4177 L23.737,23.6697 L32.182,26.4597 C33.128,26.7717 34.219,26.4147 34.679,25.5317 C35.266,24.4057 34.692,23.0757 33.539,22.6947 L26.892,20.4987 L27.99,17.1757 C28.596,15.3407 27.6,13.3607 25.765,12.7547 L23.865,12.1267 C22.03,11.5207 20.051,12.5167 19.444,14.3527 L16.017,24.7257 C14.705,28.6987 16.861,32.9827 20.833,34.2947 L22.186,34.7417 C23.235,35.0887 23.805,36.2197 23.458,37.2687 L21.763,42.1197 C21.328,43.4357 22.043,44.8547 23.359,45.2897 L23.359,45.2897 C24.676,45.7247 26.096,45.0087 26.53,43.6907 L29.469,35.0317 C30.158,32.9367 29.02,30.6807 26.926,29.9887 L26.926,29.9887 Z"/><path d="M0,15.8273 L31.334,26.1793"/><path d="M3.476,14.8693 L2.221,18.6673"/></g></g></g><text x="0" y="72" fill="#000000" font-size="5px" font-weight="bold" font-family="'Helvetica Neue', Helvetica, Arial-Unicode, Arial, Sans-serif">Created by Ben Davis</text><text x="0" y="77" fill="#000000" font-size="5px" font-weight="bold" font-family="'Helvetica Neue', Helvetica, Arial-Unicode, Arial, Sans-serif">from the Noun Project</text></svg>