<svg xmlns="http://www.w3.org/2000/svg" xmlns:xlink="http://www.w3.org/1999/xlink" version="1.1" x="0px" y="0px" viewBox="0 0 64 80" style="enable-background:new 0 0 64 64;" xml:space="preserve"><g><path d="M28,1c-1.654,0-3,1.346-3,3v9c0,0.551-0.448,1-1,1s-1-0.449-1-1V4c0-1.654-1.346-3-3-3s-3,1.346-3,3v9c0,0.551-0.448,1-1,1   s-1-0.449-1-1V4c0-1.654-1.346-3-3-3S9,2.346,9,4v10c0,4.64,2.892,8.609,6.964,10.223L15,58c0,2.757,2.243,5,5,5s5-2.243,5-5.028   l-0.964-33.749C28.108,22.609,31,18.64,31,14V4C31,2.346,29.654,1,28,1z M23,58c0,1.654-1.346,3-3,3s-3-1.346-3-2.972l0.949-33.227   C18.615,24.927,19.299,25,20,25c0.701,0,1.385-0.073,2.051-0.199L23,58z M29,14c0,4.962-4.037,9-9,9s-9-4.038-9-9V4   c0-0.551,0.448-1,1-1s1,0.449,1,1v9c0,1.654,1.346,3,3,3s3-1.346,3-3V4c0-0.551,0.448-1,1-1s1,0.449,1,1v9c0,1.654,1.346,3,3,3   s3-1.346,3-3V4c0-0.551,0.448-1,1-1s1,0.449,1,1V14z"/><path d="M55,14c0-7.168-4.935-13-11-13S33,6.832,33,14c0,5.484,2.893,10.176,6.966,12.083L39,58c0,2.757,2.243,5,5,5   s5-2.243,5-5.03l-0.966-31.887C52.107,24.176,55,19.484,55,14z M47,58c0,1.654-1.346,3-3,3s-3-1.346-3-2.97l0.947-31.266   C42.613,26.914,43.298,27,44,27c0.702,0,1.387-0.086,2.053-0.235L47,58z M44,25c-4.963,0-9-4.935-9-11s4.037-11,9-11s9,4.935,9,11   S48.963,25,44,25z"/><path d="M49,14c0,3.86-2.243,7-5,7v2c3.859,0,7-4.038,7-9H49z"/><rect x="19" y="57" width="2" height="2"/><rect x="43" y="57" width="2" height="2"/></g><text x="0" y="79" fill="#000000" font-size="5px" font-weight="bold" font-family="'Helvetica Neue', Helvetica, Arial-Unicode, Arial, Sans-serif">Created by Template</text><text x="0" y="84" fill="#000000" font-size="5px" font-weight="bold" font-family="'Helvetica Neue', Helvetica, Arial-Unicode, Arial, Sans-serif">from the Noun Project</text></svg>