<svg xmlns="http://www.w3.org/2000/svg" xmlns:xlink="http://www.w3.org/1999/xlink" version="1.1" x="0px" y="0px" viewBox="0 0 100 125" style="enable-background:new 0 0 100 100;" xml:space="preserve"><g><path d="M12.4980173,80.0646667h3v-3.75h5.999999v3.75h3v-3.75h6v3.75h3v-3.75h6v3.75h3v-3.75h2.25v-3h-20.262085v-8.7976685   c2.0422668,2.1974487,4.9473267,3.5824585,8.1767578,3.5824585v-3c-4.5087891,0-8.1767578-3.668335-8.1767578-8.177124v-4.427124   c2.0422668,2.1973572,4.9473267,3.5822754,8.1767578,3.5822754v-3c-4.5087891,0-8.1767578-3.6679688-8.1767578-8.1767578   v-4.4003906c2.0422668,2.1973572,4.9473267,3.5822754,8.1767578,3.5822754v-3   c-4.5087891,0-8.1767578-3.6679688-8.1767578-8.1767578h-3c0,4.5087891-3.6679688,8.1767578-8.1767569,8.1767578v3   c3.2294302,0,6.13449-1.3849182,8.1767569-3.5822754v4.4003906c0,4.5087891-3.6679688,8.1767578-8.1767569,8.1767578v3   c3.2294302,0,6.13449-1.3849182,8.1767569-3.5822754v4.427124c0,4.5087891-3.6679688,8.177124-8.1767569,8.177124v3   c3.2294302,0,6.13449-1.3850098,8.1767569-3.5824585v8.7976685H5.7480168v3h6.7500005V80.0646667z"/><path d="M47.0833435,21.5749187l3.6895752,3.6895752c0.8770752,0.8774414,2.029541,1.3161621,3.1820068,1.3161621   c1.1520996,0,2.3045654-0.4387207,3.1816406-1.3161621l3.4119415-3.4119415l13.3789673,20.979311   c-1.825882-0.7174072-3.7980194-1.1003265-5.8331451-1.1003265c-5.4638672,0-10.4769287,2.7520752-13.4099121,7.3619385   l-11.416626,17.9425049l2.53125,1.6105957l9.0044403-14.1514435l2.8897247,2.8897247   c2.2503662,2.2507324,5.9139404,2.2514648,8.1650391,0c1.0810547-1.0810547,2.840332-1.0817871,3.9228516,0l0.3076172,0.3076172   c1.0905762,1.0905762,2.5404053,1.6915283,4.0825195,1.6915283c1.5424805,0,2.9923096-0.6009521,4.0825195-1.6915283   l3.1451111-3.1448364l8.9769745,14.0766907l0.0141449,0.0222473l0,0l0.0007324,0.0010986l1.2648926-0.8063965l1.265625-0.8052979   l-11.416626-17.9425049c-0.1280365-0.2012329-0.2650452-0.3943176-0.4009094-0.5884094l-23.5474548-36.924408   c-0.8280029-1.2982178-2.2415771-2.0760498-3.7811279-2.0804443c-0.0043945,0-0.0087891,0-0.0135498,0   c-1.5340576,0-2.9465332,0.7686768-3.7796631,2.0581055L33.4079285,37.2150574l2.5202637,1.6281738L47.0833435,21.5749187z    M76.1322937,55.5713806c-1.0473633,1.0480957-2.8743896,1.0480957-3.9224854,0l-0.3076172-0.3079834   c-2.2518311-2.2507324-5.9146729-2.2507324-8.1650391,0c-1.0825195,1.0817871-2.8417969,1.0806885-3.9228516,0.0003662   l-3.3612213-3.3612213l0.7625885-1.1984711c2.3792725-3.7397461,6.4460449-5.9725342,10.8786621-5.9725342   c4.1947174,0,8.0594788,2.001709,10.4791718,5.3857269l1.1734314,1.8400726L76.1322937,55.5713806z M52.5021667,13.186491   c0.2816162-0.4365234,0.7404785-0.6862793,1.2593994-0.6862793c0.0014648,0,0.0032959,0,0.0047607,0   c0.520752,0.0014648,0.9803467,0.2541504,1.2601318,0.6932373l3.870163,6.0688019l-3.8811493,3.8811493   c-0.5848389,0.5841064-1.5358887,0.5848389-2.12146,0L48.74823,18.9976177L52.5021667,13.186491z"/><path d="M15.9828806,25.3146648h5.1401358c3.1018066,0,5.625-2.5231934,5.625-5.625s-2.5231934-5.625-5.625-5.625h-1.125   c-0.8272705,0-1.5-0.6727295-1.5-1.5c0-3.3083496-2.6916494-5.9999995-5.999999-5.9999995   s-6.0000005,2.6916499-6.0000005,5.9999995v3.2647705C6.4980168,21.05966,10.7530222,25.3146648,15.9828806,25.3146648z    M9.4980173,12.5646648c0-1.6541748,1.3458252-3,3-3s3,1.3458252,3,3c0,2.4814453,2.0185537,4.5,4.499999,4.5h1.125   c1.4472656,0,2.625,1.1777344,2.625,2.625s-1.1777344,2.625-2.625,2.625h-5.1401358   c-3.5756836,0-6.4848633-2.9091797-6.4848633-6.4852295V12.5646648z"/><path d="M85.6215515,90.9378357c-3.0909576,0-5.6058655-2.506897-5.6217041-5.5942383   c0.0000458-0.0097504,0.0014648-0.0191803,0.0014648-0.0289307h-0.0029297h-2.9970703h-0.0029297   c0,0.0097504,0.0014191,0.0191803,0.0014648,0.0289307c-0.0158386,3.0873413-2.5307465,5.5942383-5.6217041,5.5942383   c-3.100708,0-5.6231689-2.5224609-5.6231689-5.6231689h-0.0065918h-2.9934082h-0.0065918   c0,3.100708-2.5224609,5.6231689-5.6231689,5.6231689s-5.6231689-2.5224609-5.6231689-5.6231689h-0.0087891h-2.9912109h-0.0087891   c0,3.100708-2.5224609,5.6231689-5.6228027,5.6231689c-3.0909576,0-5.6058655-2.506897-5.6217041-5.5942383   c0.0000458-0.0097504,0.0014648-0.0191803,0.0014648-0.0289307h-0.0029297h-2.9970703h-0.0029297   c0,0.0097504,0.0014191,0.0191803,0.0014648,0.0289307c-0.0158386,3.0873413-2.5307465,5.5942383-5.6217041,5.5942383   c-3.100708,0-5.6231689-2.5224609-5.6231689-5.6231689h-0.0065918h-2.9934082h-0.0065918   c0,3.100708-2.5224609,5.6231689-5.623168,5.6231689S8.750947,88.4153748,8.750947,85.3146667H5.7509465   c0,4.7548828,3.8682866,8.6231689,8.6231689,8.6231689c2.9586172,0,5.5726767-1.4987183,7.1264639-3.7757721   c1.5537872,2.2770538,4.1678467,3.7757721,7.1264648,3.7757721c2.95578,0,5.5673676-1.4960175,7.1217041-3.7694092   c1.5543365,2.2733917,4.1659241,3.7694092,7.1217041,3.7694092c2.9590759,0,5.5735931-1.4993134,7.1271973-3.7772369   c1.5536499,2.2779236,4.1682587,3.7772369,7.1275635,3.7772369c2.9586182,0,5.5726776-1.4987183,7.1264648-3.7757721   c1.5537872,2.2770538,4.1678467,3.7757721,7.1264648,3.7757721c2.95578,0,5.5673676-1.4960175,7.1217041-3.7694092   c1.5543365,2.2733917,4.1659241,3.7694092,7.1217041,3.7694092c4.7548828,0,8.6231689-3.8682861,8.6231689-8.6231689h-3   C91.2447205,88.4153748,88.7222595,90.9378357,85.6215515,90.9378357z"/><path d="M71.3781433,78.940033c-3.100708,0-5.6231689-2.5224609-5.6231689-5.6231689h-0.0065918h-2.9934082h-0.0065918   c0,3.100708-2.5224609,5.6231689-5.6231689,5.6231689s-5.6231689-2.5224609-5.6231689-5.6231689h-3   c0,4.7548828,3.8682861,8.6231689,8.6231689,8.6231689c2.9586182,0,5.5726776-1.4987183,7.1264648-3.7757721   c1.5537872,2.2770538,4.1678467,3.7757721,7.1264648,3.7757721c2.95578,0,5.5673676-1.4960175,7.1217041-3.7694092   c1.5543365,2.2733917,4.1659241,3.7694092,7.1217041,3.7694092c4.7548828,0,8.6231689-3.8682861,8.6231689-8.6231689h-3   c0,3.100708-2.5224609,5.6231689-5.6231689,5.6231689c-3.0909576,0-5.6058655-2.506897-5.6217041-5.5942383   c0.0000458-0.0097504,0.0014648-0.0191803,0.0014648-0.0289307h-0.0029297h-2.9970703h-0.0029297   c0,0.0097504,0.0014191,0.0191803,0.0014648,0.0289307C76.9840088,76.433136,74.469101,78.940033,71.3781433,78.940033z"/></g><text x="0" y="115" fill="#000000" font-size="5px" font-weight="bold" font-family="'Helvetica Neue', Helvetica, Arial-Unicode, Arial, Sans-serif">Created by Elisabetta Calabritto</text><text x="0" y="120" fill="#000000" font-size="5px" font-weight="bold" font-family="'Helvetica Neue', Helvetica, Arial-Unicode, Arial, Sans-serif">from the Noun Project</text></svg>